<?xml version="1.0" encoding="UTF-8" standalone="no"?>
<!-- Created with Inkscape (http://www.inkscape.org/) -->

<svg
   width="182mm"
   height="70mm"
   viewBox="0 0 182 70"
   version="1.1"
   id="svg5"
   inkscape:version="1.2.1 (9c6d41e410, 2022-07-14)"
   sodipodi:docname="logo mustelideo.svg"
   xmlns:inkscape="http://www.inkscape.org/namespaces/inkscape"
   xmlns:sodipodi="http://sodipodi.sourceforge.net/DTD/sodipodi-0.dtd"
   xmlns="http://www.w3.org/2000/svg"
   xmlns:svg="http://www.w3.org/2000/svg">
  <sodipodi:namedview
     id="namedview7"
     pagecolor="#ffffff"
     bordercolor="#000000"
     borderopacity="0.25"
     inkscape:showpageshadow="2"
     inkscape:pageopacity="0.0"
     inkscape:pagecheckerboard="0"
     inkscape:deskcolor="#d1d1d1"
     inkscape:document-units="mm"
     showgrid="false"
     showguides="false"
     inkscape:zoom="0.5852904"
     inkscape:cx="762.01489"
     inkscape:cy="152.06127"
     inkscape:window-width="1366"
     inkscape:window-height="705"
     inkscape:window-x="-8"
     inkscape:window-y="-8"
     inkscape:window-maximized="1"
     inkscape:current-layer="g1348" />
  <defs
     id="defs2" />
  <g
     inkscape:label="Camada 1"
     inkscape:groupmode="layer"
     id="layer1">
    <ellipse
       style="fill:#ffffff;stroke-width:0.190652"
       id="path1214"
       cx="95.835625"
       cy="208.8493"
       rx="3.3563354"
       ry="1.4384296" />
    <ellipse
       style="fill:#ffffff;stroke-width:0.337487"
       id="path470"
       cx="97.643837"
       cy="204.78082"
       rx="8.5663242"
       ry="1.9018427" />
    <ellipse
       style="fill:#ffffff;stroke-width:0.546451"
       id="ellipse1378"
       cx="76.171219"
       cy="218.79451"
       rx="23.687443"
       ry="3.753547" />
    <path
       style="fill:#000000;stroke-width:0.264583"
       d="m 189.86302,230.78025 c -4.52055,-4.52055 -4.52055,-4.0685 -4.52055,-4.0685"
       id="path940" />
    <g
       id="g1348"
       transform="matrix(1.1016483,0,0,1,56.354094,9.9452055)">
      <rect
         style="fill:#000000;stroke-width:0.267806"
         id="rect416"
         width="143.62042"
         height="69.164375"
         x="-51.154343"
         y="-9.0411024" />
      <path
         style="fill:#ffffff;stroke-width:0.373164"
         d="m -46.650133,32.02782 c 4.92942,-3.13636 9.47965,-5.3434 9.47965,-5.3434 l 4.04466,-0.81313 c 0,0 12.13399,-3.02017 12.63956,-3.02017 0.50558,0 10.7436404,-5.3434 10.7436404,-5.3434 l 7.83652,-7.43429 8.46851,-6.6211701 5.8141996,-4.87875 7.71015,-3.13634 6.69899,0.46465 6.44614,0.92928 1.13757,0.81312 4.04465,1.97474004 7.07814,5.22722996 2.78071,1.51009 7.33096,-2.55553 4.04464,-0.34849 5.43502,1.74242 c 0,0 4.04467,-0.23233 4.04467,0.11613 0,0.34849 1.13754,2.09088 1.13754,2.09088 h 1.01118 l 1.26395,1.16163 1.51676,0.69696 0.88475,0.5808 -0.88475,2.4393701 0.12641,0.81313 v 0.92929 l -1.39034,0.92928 -1.89594,0.46465 -3.66548,0.58079 -7.20455,2.67172 -6.19336,3.25249 -2.14874,3.25251 0.12641,1.51009 0.2528,3.48481 2.40152,1.85858 4.80303,0.81314 0.50558,0.92928 0.37919,0.69696 -0.63195,0.58079 h -0.88481 l -0.88475,0.34849 -0.63198,0.23232 -6.19339,-0.58081 -1.39036,-0.69695 -0.37917,-1.62625 -1.26397,-0.69697 -4.42384,-6.38883 -1.76953,-0.46465 -3.2863,0.92929 -2.14871,3.36866 -1.51674,2.20705 0.75835,1.74241 1.13756,1.74242 3.03349,0.69696 3.28632,0.81312 0.37916,1.39393 -0.88478,0.92929 -0.88476,0.46465 -2.78071,0.11612 -0.50559,0.69695 -1.39033,-0.92929 -1.64314,-0.58079 -3.66546,-1.04545 -1.76955,-4.53028 -1.89594,-0.46465 -0.75834,-11.84838 c 0,0 -1.51675,-0.92928 -2.02238,-1.39393 -0.50554,-0.46464 -2.52788,2.90402 -2.52788,2.90402 l -3.79187,3.13633 -2.14874,1.16162 -1.76953,4.06561 1.64314,2.55554 5.05584,0.81312 0.37918,1.51011 -0.50561,0.34848 -0.12639,0.23233 c 0,0 -0.12639,0.46463 -0.63198,0.46463 -0.50559,0 -2.02233,0 -2.02233,0 l 0.12638,0.92929 -0.5056,0.23232 -0.37917,1.04544 -1.39036,-0.23232 h -0.75842 l -0.12638,0.81313 -3.15987,-1.39393 -1.64314,1.04545 -3.5390796,-2.90401 -0.12639,-3.13636 -0.25279,-2.09088 -2.27511,-2.78786 0.88475,-3.94947 -1.39036,-3.13634 -3.28627001,1.74241 -8.59489999,2.67169 -7.4573404,0.9293 -20.0969,2.43936 z"
         id="path965-6" />
      <g
         id="g295"
         transform="translate(-183.01344,-22.150685)"
         style="fill:#ffffff">
        <path
           style="fill:#ffffff;stroke-width:0.153165"
           d="m 227.28551,66.969403 -0.23507,12.81827 h 5.87671 v -2.03927 h -4.70137 v -4.07853 h 4.23123 l -0.23507,-2.03928 -3.99616,0.29133 0.23507,-3.78721 h 4.23123 l -0.23507,-1.45663 z"
           id="path922-8" />
        <path
           style="fill:#ffffff;stroke-width:0.185098"
           d="m 155.45894,63.287683 c 0.3229,16.41629 0.96868,16.72602 0.96868,16.72602 h 2.58318 l -0.3229,-11.77016 2.58317,5.57534 1.93738,-6.19483 0.3229,12.07992 h 3.22896 l -0.64579,-14.55785 -2.58317,0.30975 -2.90607,4.02663 -2.58317,-4.02663 h -2.58317 l 3.22896,0.61947 -1.61448,-0.92922"
           id="path892" />
        <path
           style="fill:#ffffff;stroke-width:0.16446"
           d="m 167.83125,69.297963 c 0.28463,9.9863 0.56926,10.26369 0.56926,10.26369 h 5.40791 1.70778 l -0.28464,-12.20548 -1.99238,0.5548 v 9.43151 l -2.56165,0.55479 -0.56926,-10.5411 z"
           id="path906" />
        <path
           style="fill:#ffffff;stroke-width:0.167986"
           d="m 177.2114,77.256233 c 0,-0.58312 6.4983,0 6.4983,0 v -4.37342 h -6.4983 l -0.28253,-6.41436 c 0,0 9.04109,-0.29157 7.91096,0.29156 -1.13013,0.58312 -0.56507,2.33249 -0.56507,2.33249 l -5.65068,-0.29156 -0.28254,2.33249 6.21576,-0.29156 0.8476,1.74938 -0.28254,3.7903 0.56507,1.45781 -0.28253,-0.87468 -0.8476,1.74937 h -7.91096 z"
           id="path910" />
        <path
           style="fill:#ffffff;stroke-width:0.172596"
           d="m 184.10523,66.452063 c 12.69602,0 13.2731,0.30138 13.2731,0.30138 l 0.28855,2.10958 -6.05946,-0.30137 v 10.54795 h -1.73127 l -0.28855,-10.54795 h -5.48237 z"
           id="path918" />
        <path
           style="fill:#ffffff;stroke-width:0.153165"
           d="m 198.35401,66.969413 -0.23507,12.81827 h 5.87671 v -2.03927 h -4.70137 v -4.07853 h 4.23123 l -0.23507,-2.03928 -3.99616,0.29133 0.23507,-3.78721 h 4.23123 l -0.23507,-1.45663 z"
           id="path922" />
        <path
           style="fill:#ffffff;stroke-width:0.156269"
           d="m 214.61893,65.321923 c 0.22603,12.61548 0.45205,13.56165 0.45205,13.56165 h 1.35617 l -0.45205,-13.56165 z"
           id="path932" />
        <path
           style="fill:#ffffff;stroke-width:0.167477"
           d="m 218.5786,79.376713 -0.56925,-14.9589 5.97717,0.86302 1.70776,7.47945 v 2.58904 l -1.42314,4.89042 z"
           id="path934" />
        <path
           style="fill:#ffffff;stroke-width:0.128633"
           d="m 234.84448,67.393163 c -0.20265,10.96437 0,12.39452 0,12.39452 h 4.86349 v -13.10959 h -5.87672 l 2.63439,0.47672 z"
           id="path938" />
        <path
           style="fill:#ffffff;stroke-width:0.18318"
           d="m 205.57783,66.713783 c 0.27447,12.49098 0.82339,12.84788 0.82339,12.84788 l 6.86155,-0.3569 -0.27447,-1.78442 -5.7637,0.35689 v -11.77722 z"
           id="path928-9" />
        <path
           style="fill:#ffffff;stroke-width:0.167986"
           d="m 240.49906,78.386373 c 0,-0.58312 6.4983,0 6.4983,0 v -4.37342 h -6.4983 l -0.28253,-6.41436 c 0,0 9.04109,-0.29157 7.91096,0.29156 -1.13013,0.58312 -0.56507,2.33249 -0.56507,2.33249 l -5.65068,-0.29156 -0.28254,2.33249 6.21576,-0.29156 0.8476,1.74938 -0.28254,3.7903 0.56507,1.45781 -0.28253,-0.87468 -0.8476,1.74937 H 239.934 Z"
           id="path910-2" />
      </g>
    </g>
  </g>
</svg>
